{"asset":{"generator":"Khronos glTF Blender I/O v5.0.21","version":"2.0"},"scene":0,"scenes":[{"name":"Scene","nodes":[0]}],"nodes":[{"mesh":0,"name":"Mesh_0"}],"materials":[{"doubleSided":true,"name":"Material_0","normalTexture":{"index":0},"pbrMetallicRoughness":{"baseColorTexture":{"index":1},"metallicRoughnessTexture":{"index":2}}},{"doubleSided":true,"name":"MouthInner","pbrMetallicRoughness":{"baseColorFactor":[0.054999999701976776,0.01899999938905239,0.02199999988079071,1],"metallicFactor":0,"roughnessFactor":0.8199999928474426}},{"doubleSided":true,"name":"Tongue","pbrMetallicRoughness":{"baseColorFactor":[0.4399999976158142,0.14000000059604645,0.1550000011920929,1],"metallicFactor":0,"roughnessFactor":0.44999998807907104}}],"meshes":[{"extras":{"targetNames":["A","I","U","E","O","Blink","BlinkL","BlinkR"]},"name":"Mesh_0","primitives":[{"attributes":{"POSITION":0,"NORMAL":1,"TEXCOORD_0":2},"indices":3,"material":0,"targets":[{"POSITION":4},{"POSITION":5},{"POSITION":6},{"POSITION":7},{"POSITION":8},{"POSITION":9},{"POSITION":10},{"POSITION":11}]},{"attributes":{"POSITION":12,"NORMAL":13,"TEXCOORD_0":14},"indices":15,"material":1,"targets":[{"POSITION":16},{"POSITION":17},{"POSITION":18},{"POSITION":19},{"POSITION":20},{"POSITION":21},{"POSITION":22},{"POSITION":23}]},{"attributes":{"POSITION":24,"NORMAL":25,"TEXCOORD_0":26},"indices":27,"material":2,"targets":[{"POSITION":28},{"POSITION":29},{"POSITION":30},{"POSITION":31},{"POSITION":32},{"POSITION":33},{"POSITION":34},{"POSITION":35}]}],"weights":[0,0,0,0,0,0,0,0]}],"textures":[{"sampler":0,"source":0},{"sampler":0,"source":1},{"sampler":0,"source":2}],"images":[{"mimeType":"image/webp","name":"sharp_normal","uri":"normal.webp"},{"mimeType":"image/webp","name":"new_sharp_basecolor","uri":"basecolor.webp"},{"mimeType":"image/webp","name":"hq_metalrough","uri":"metalrough.webp"}],"accessors":[{"bufferView":0,"componentType":5126,"count":328519,"max":[0.7160476446151733,1,0.6060538291931152],"min":[-0.7160476446151733,-1,-0.6060538291931152],"type":"VEC3"},{"bufferView":1,"componentType":5126,"count":328519,"type":"VEC3"},{"bufferView":2,"componentType":5126,"count":328519,"type":"VEC2"},{"bufferView":3,"componentType":5125,"count":1642359,"type":"SCALAR"},{"componentType":5126,"count":328519,"max":[0.003982052206993103,0.031102269887924194,0],"min":[-0.003998817875981331,-0.05431145429611206,-0.003999978303909302],"sparse":{"count":2462,"indices":{"bufferView":4,"componentType":5125},"values":{"bufferView":5}},"type":"VEC3"},{"componentType":5126,"count":328519,"max":[0.037988610565662384,0.015198290348052979,0],"min":[-0.037803418934345245,-0.014893919229507446,-0.011999934911727905],"sparse":{"count":2462,"indices":{"bufferView":6,"componentType":5125},"values":{"bufferView":7}},"type":"VEC3"},{"componentType":5126,"count":328519,"max":[0.0437764897942543,0.02414858341217041,0.01399993896484375],"min":[-0.04398684203624725,-0.032622069120407104,0],"sparse":{"count":2462,"indices":{"bufferView":8,"componentType":5125},"values":{"bufferView":9}},"type":"VEC3"},{"componentType":5126,"count":328519,"max":[0.017994586378335953,0.022157281637191772,0],"min":[-0.017903588712215424,-0.031189531087875366,-0.003999978303909302],"sparse":{"count":2462,"indices":{"bufferView":10,"componentType":5125},"values":{"bufferView":11}},"type":"VEC3"},{"componentType":5126,"count":328519,"max":[0.028849013149738312,0.03011190891265869,0.01399993896484375],"min":[-0.028991304337978363,-0.04792691767215729,0],"sparse":{"count":2462,"indices":{"bufferView":12,"componentType":5125},"values":{"bufferView":13}},"type":"VEC3"},{"componentType":5126,"count":328519,"max":[0,0.08043864369392395,0],"min":[0,-0.09033572673797607,-0.01399087905883789],"sparse":{"count":4921,"indices":{"bufferView":14,"componentType":5125},"values":{"bufferView":15}},"type":"VEC3"},{"componentType":5126,"count":328519,"max":[0,0.08043864369392395,0],"min":[0,-0.09033572673797607,-0.01399087905883789],"sparse":{"count":2241,"indices":{"bufferView":16,"componentType":5125},"values":{"bufferView":17}},"type":"VEC3"},{"componentType":5126,"count":328519,"max":[0,0.07937979698181152,0],"min":[0,-0.08981239795684814,-0.0139884352684021],"sparse":{"count":2680,"indices":{"bufferView":18,"componentType":5125},"values":{"bufferView":19}},"type":"VEC3"},{"bufferView":20,"componentType":5126,"count":236,"max":[0.026156239211559296,0.3169074058532715,0.5165978670120239],"min":[-0.09979574382305145,0.2840938866138458,0.25554344058036804],"type":"VEC3"},{"bufferView":21,"componentType":5126,"count":236,"type":"VEC3"},{"bufferView":22,"componentType":5126,"count":236,"type":"VEC2"},{"bufferView":23,"componentType":5123,"count":1233,"type":"SCALAR"},{"componentType":5126,"count":236,"max":[0.003694780170917511,0.029002010822296143,0],"min":[-0.003618372604250908,-0.048719748854637146,-0.003742814064025879],"sparse":{"count":177,"indices":{"bufferView":24,"componentType":5121},"values":{"bufferView":25}},"type":"VEC3"},{"componentType":5126,"count":236,"max":[0.034364812076091766,0.014158785343170166,0],"min":[-0.035075582563877106,-0.01334652304649353,-0.011228442192077637],"sparse":{"count":177,"indices":{"bufferView":26,"componentType":5121},"values":{"bufferView":27}},"type":"VEC3"},{"componentType":5126,"count":236,"max":[0.04061412438750267,0.02250814437866211,0.013099849224090576],"min":[-0.039792370051145554,-0.029281049966812134,0],"sparse":{"count":177,"indices":{"bufferView":28,"componentType":5121},"values":{"bufferView":29}},"type":"VEC3"},{"componentType":5126,"count":236,"max":[0.01627684012055397,0.020652711391448975,0],"min":[-0.01661451905965805,-0.027973711490631104,-0.003742814064025879],"sparse":{"count":177,"indices":{"bufferView":30,"componentType":5121},"values":{"bufferView":31}},"type":"VEC3"},{"componentType":5126,"count":236,"max":[0.026768140494823456,0.02807435393333435,0.013099849224090576],"min":[-0.026225417852401733,-0.04301649332046509,0],"sparse":{"count":177,"indices":{"bufferView":32,"componentType":5121},"values":{"bufferView":33}},"type":"VEC3"},{"componentType":5126,"count":236,"max":[0,0,0],"min":[0,0,0],"sparse":{"count":1,"indices":{"bufferView":34,"componentType":5121},"values":{"bufferView":35}},"type":"VEC3"},{"componentType":5126,"count":236,"max":[0,0,0],"min":[0,0,0],"sparse":{"count":1,"indices":{"bufferView":36,"componentType":5121},"values":{"bufferView":37}},"type":"VEC3"},{"componentType":5126,"count":236,"max":[0,0,0],"min":[0,0,0],"sparse":{"count":1,"indices":{"bufferView":38,"componentType":5121},"values":{"bufferView":39}},"type":"VEC3"},{"bufferView":40,"componentType":5126,"count":859,"max":[0.016000013798475266,0.30503925681114197,0.39582720398902893],"min":[-0.08800002932548523,0.2683147192001343,0.3294857442378998],"type":"VEC3"},{"bufferView":41,"componentType":5126,"count":859,"type":"VEC3"},{"bufferView":42,"componentType":5126,"count":859,"type":"VEC2"},{"bufferView":43,"componentType":5123,"count":4560,"type":"SCALAR"},{"bufferView":44,"componentType":5126,"count":859,"max":[0.0029428228735923767,0,0],"min":[-0.0029428228735923767,-0.04602330923080444,-0.003999978303909302],"type":"VEC3"},{"bufferView":45,"componentType":5126,"count":859,"max":[0.026095516979694366,0,0],"min":[-0.026095539331436157,-0.01248881220817566,-0.011999934911727905],"type":"VEC3"},{"bufferView":46,"componentType":5126,"count":859,"max":[0.03050977736711502,0,0.01399993896484375],"min":[-0.030509749427437782,-0.027410298585891724,0],"type":"VEC3"},{"bufferView":47,"componentType":5126,"count":859,"max":[0.012125922366976738,0,0],"min":[-0.012125931680202484,-0.026192784309387207,-0.003999978303909302],"type":"VEC3"},{"bufferView":48,"componentType":5126,"count":859,"max":[0.019846439361572266,0,0.01399993896484375],"min":[-0.019846424460411072,-0.040520817041397095,0],"type":"VEC3"},{"componentType":5126,"count":859,"max":[0,0,0],"min":[0,0,0],"sparse":{"count":1,"indices":{"bufferView":49,"componentType":5121},"values":{"bufferView":50}},"type":"VEC3"},{"componentType":5126,"count":859,"max":[0,0,0],"min":[0,0,0],"sparse":{"count":1,"indices":{"bufferView":51,"componentType":5121},"values":{"bufferView":52}},"type":"VEC3"},{"componentType":5126,"count":859,"max":[0,0,0],"min":[0,0,0],"sparse":{"count":1,"indices":{"bufferView":53,"componentType":5121},"values":{"bufferView":54}},"type":"VEC3"}],"bufferViews":[{"buffer":0,"byteLength":3942228,"byteOffset":0,"target":34962},{"buffer":0,"byteLength":3942228,"byteOffset":3942228,"target":34962},{"buffer":0,"byteLength":2628152,"byteOffset":7884456,"target":34962},{"buffer":0,"byteLength":6569436,"byteOffset":10512608,"target":34963},{"buffer":0,"byteLength":9848,"byteOffset":17082044},{"buffer":0,"byteLength":29544,"byteOffset":17091892},{"buffer":0,"byteLength":9848,"byteOffset":17121436},{"buffer":0,"byteLength":29544,"byteOffset":17131284},{"buffer":0,"byteLength":9848,"byteOffset":17160828},{"buffer":0,"byteLength":29544,"byteOffset":17170676},{"buffer":0,"byteLength":9848,"byteOffset":17200220},{"buffer":0,"byteLength":29544,"byteOffset":17210068},{"buffer":0,"byteLength":9848,"byteOffset":17239612},{"buffer":0,"byteLength":29544,"byteOffset":17249460},{"buffer":0,"byteLength":19684,"byteOffset":17279004},{"buffer":0,"byteLength":59052,"byteOffset":17298688},{"buffer":0,"byteLength":8964,"byteOffset":17357740},{"buffer":0,"byteLength":26892,"byteOffset":17366704},{"buffer":0,"byteLength":10720,"byteOffset":17393596},{"buffer":0,"byteLength":32160,"byteOffset":17404316},{"buffer":0,"byteLength":2832,"byteOffset":17436476,"target":34962},{"buffer":0,"byteLength":2832,"byteOffset":17439308,"target":34962},{"buffer":0,"byteLength":1888,"byteOffset":17442140,"target":34962},{"buffer":0,"byteLength":2466,"byteOffset":17444028,"target":34963},{"buffer":0,"byteLength":177,"byteOffset":17446496},{"buffer":0,"byteLength":2124,"byteOffset":17446676},{"buffer":0,"byteLength":177,"byteOffset":17448800},{"buffer":0,"byteLength":2124,"byteOffset":17448980},{"buffer":0,"byteLength":177,"byteOffset":17451104},{"buffer":0,"byteLength":2124,"byteOffset":17451284},{"buffer":0,"byteLength":177,"byteOffset":17453408},{"buffer":0,"byteLength":2124,"byteOffset":17453588},{"buffer":0,"byteLength":177,"byteOffset":17455712},{"buffer":0,"byteLength":2124,"byteOffset":17455892},{"buffer":0,"byteLength":1,"byteOffset":17458016},{"buffer":0,"byteLength":12,"byteOffset":17458020},{"buffer":0,"byteLength":1,"byteOffset":17458032},{"buffer":0,"byteLength":12,"byteOffset":17458036},{"buffer":0,"byteLength":1,"byteOffset":17458048},{"buffer":0,"byteLength":12,"byteOffset":17458052},{"buffer":0,"byteLength":10308,"byteOffset":17458064,"target":34962},{"buffer":0,"byteLength":10308,"byteOffset":17468372,"target":34962},{"buffer":0,"byteLength":6872,"byteOffset":17478680,"target":34962},{"buffer":0,"byteLength":9120,"byteOffset":17485552,"target":34963},{"buffer":0,"byteLength":10308,"byteOffset":17494672,"target":34962},{"buffer":0,"byteLength":10308,"byteOffset":17504980,"target":34962},{"buffer":0,"byteLength":10308,"byteOffset":17515288,"target":34962},{"buffer":0,"byteLength":10308,"byteOffset":17525596,"target":34962},{"buffer":0,"byteLength":10308,"byteOffset":17535904,"target":34962},{"buffer":0,"byteLength":1,"byteOffset":17546212},{"buffer":0,"byteLength":12,"byteOffset":17546216},{"buffer":0,"byteLength":1,"byteOffset":17546228},{"buffer":0,"byteLength":12,"byteOffset":17546232},{"buffer":0,"byteLength":1,"byteOffset":17546244},{"buffer":0,"byteLength":12,"byteOffset":17546248}],"samplers":[{"magFilter":9729,"minFilter":9987}],"buffers":[{"byteLength":17546260,"uri":"tanuki.bin"}]}